<svg width="415" height="74" viewBox="0 0 415 74" fill="none" xmlns="http://www.w3.org/2000/svg">
<path d="M58.9849 7.04171H3.45385C1.57233 7.04171 0.00264387 8.62725 0.00264387 10.5352V16.7981C0.00264387 18.7536 1.57233 20.2969 3.45649 20.2969H58.9823C60.9114 20.2969 62.4361 18.706 62.4811 16.8007V10.5801C62.4811 8.62989 60.9114 7.03906 58.9849 7.03906V7.04171ZM58.9849 41.9026H3.45385C2.99925 41.9034 2.54935 41.9945 2.13021 42.1705C1.71106 42.3465 1.33102 42.6039 1.01211 42.9279C0.362848 43.5863 -0.00079224 44.474 1.29602e-06 45.3987V51.6616C1.29602e-06 53.6171 1.56969 55.1577 3.45385 55.1577H58.9796C60.9087 55.1577 62.4335 53.6145 62.4784 51.6642V45.3987C62.4784 43.4458 60.9114 41.9026 58.9849 41.9026ZM34.7182 59.2907H3.45649C2.53952 59.2907 1.65954 59.658 1.01475 60.3134C0.36549 60.9718 0.00185034 61.8595 0.00264387 62.7842V69.0471C0.00264387 71.0026 1.57233 72.5432 3.45649 72.5432H34.6732C36.6023 72.5432 38.1271 70.9577 38.1271 69.0497V62.7842C38.1387 62.3292 38.0592 61.8766 37.8931 61.4529C37.727 61.0292 37.4777 60.643 37.16 60.3172C36.8423 59.9913 36.4625 59.7324 36.0432 59.5556C35.6238 59.3789 35.1733 59.2906 34.7182 59.2907ZM62.4811 24.4695H3.45649C2.53952 24.4695 1.65954 24.8395 1.01475 25.4922C0.364846 26.1512 0.00115449 27.04 0.00264387 27.9656V34.2285C0.00264387 36.1814 1.57233 37.7247 3.45649 37.7247H62.4388C64.3679 37.7247 65.89 36.1365 65.89 34.2285V27.9656C65.8977 27.5117 65.8154 27.0608 65.6479 26.6388C65.4804 26.2169 65.2309 25.8323 64.914 25.5072C64.5971 25.1822 64.2189 24.9231 63.8013 24.745C63.3837 24.5669 62.935 24.4733 62.4811 24.4695Z" fill="#00C3F7"/>
<path d="M127.109 21.158C125.403 19.3922 123.36 17.9876 121.1 17.0277C118.828 16.0726 116.388 15.5785 113.923 15.5743C111.521 15.5188 109.139 16.0322 106.973 17.0726C105.52 17.7676 104.209 18.7374 103.115 19.9319V18.8458C103.107 18.2929 102.901 17.7614 102.534 17.3475C102.353 17.1315 102.127 16.9583 101.871 16.8404C101.615 16.7225 101.336 16.6628 101.054 16.6657H93.2932C93.0108 16.6582 92.7305 16.7158 92.4739 16.834C92.2173 16.9523 91.9913 17.1279 91.8134 17.3475C91.428 17.7498 91.218 18.2887 91.2294 18.8458V70.5504C91.2294 71.0948 91.4541 71.6392 91.8108 72.0461C92.0055 72.2386 92.2367 72.3901 92.4908 72.4917C92.745 72.5934 93.0169 72.6432 93.2906 72.6381H101.141C101.68 72.6381 102.172 72.4108 102.576 72.0461C102.788 71.861 102.955 71.6301 103.063 71.3709C103.172 71.1117 103.221 70.8311 103.205 70.5504V52.8901C104.326 54.1162 105.761 55.0253 107.33 55.5697C109.394 56.3413 111.548 56.706 113.743 56.706C116.254 56.706 118.722 56.2488 121.01 55.2526C123.308 54.2945 125.385 52.8732 127.109 51.0773C128.899 49.2055 130.301 46.9992 131.237 44.5845C132.299 41.8824 132.817 38.9969 132.761 36.0939C132.795 33.179 132.278 30.2839 131.237 27.561C130.271 25.1878 128.87 23.0162 127.107 21.158H127.109ZM120.025 39.8596C119.614 40.956 118.989 41.9595 118.185 42.8113C117.39 43.667 116.424 44.3471 115.35 44.808C114.276 45.269 113.118 45.5007 111.949 45.4882C110.739 45.4882 109.574 45.261 108.498 44.7615C107.436 44.3039 106.476 43.6411 105.671 42.8113C104.869 41.9498 104.23 40.9496 103.787 39.8596C102.89 37.522 102.89 34.9353 103.787 32.5978C104.191 31.509 104.865 30.5101 105.671 29.6909C106.482 28.8575 107.441 28.1811 108.498 27.6958C109.576 27.1874 110.758 26.9385 111.949 26.9691C113.162 26.9691 114.327 27.1963 115.448 27.6931C116.478 28.1952 117.422 28.8294 118.23 29.6486C119.036 30.5101 119.62 31.4615 120.07 32.5528C120.929 34.9153 120.913 37.5078 120.025 39.8596ZM175.01 16.663H167.206C166.936 16.662 166.669 16.7179 166.421 16.8272C166.174 16.9365 165.953 17.0967 165.771 17.2972C165.57 17.501 165.412 17.7425 165.304 18.0078C165.197 18.2731 165.143 18.5569 165.145 18.8432V19.7945C164.164 18.6532 162.957 17.7266 161.602 17.0726C159.479 16.0417 157.143 15.5282 154.784 15.5743C149.759 15.5829 144.94 17.5732 141.373 21.1131C139.535 22.9803 138.072 25.1837 137.066 27.6033C135.946 30.307 135.398 33.213 135.454 36.1388C135.406 39.0639 135.955 41.9682 137.066 44.6743C138.067 47.0858 139.513 49.2875 141.328 51.1645C143.062 52.9512 145.141 54.3671 147.439 55.3264C149.736 56.2858 152.205 56.7686 154.694 56.7456C157.072 56.7932 159.403 56.2937 161.557 55.2473C162.902 54.5681 164.157 53.6617 165.145 52.5254V53.5692C165.145 54.1136 165.367 54.658 165.771 55.0676C166.176 55.4296 166.67 55.6569 167.206 55.6569H175.01C175.558 55.6466 176.084 55.4371 176.489 55.0676C176.684 54.8708 176.836 54.6364 176.936 54.3787C177.037 54.1211 177.083 53.8456 177.073 53.5692V18.8432C177.086 18.2864 176.876 17.7476 176.492 17.3448C176.314 17.1253 176.088 16.9496 175.832 16.8314C175.575 16.7132 175.292 16.6556 175.01 16.663ZM164.471 39.8146C164.061 40.9111 163.435 41.9146 162.632 42.7664C161.825 43.5844 160.885 44.2591 159.852 44.7615C157.654 45.7604 155.096 45.7604 152.9 44.7615C151.843 44.2763 150.884 43.5999 150.072 42.7664C149.27 41.9146 148.645 40.911 148.236 39.8146C147.384 37.4845 147.384 34.9279 148.236 32.5978C148.638 31.509 149.266 30.555 150.075 29.6909C150.881 28.8744 151.822 28.1952 152.9 27.6958C153.992 27.2024 155.176 26.9472 156.375 26.9472C157.573 26.9472 158.758 27.2024 159.85 27.6958C160.883 28.1952 161.826 28.8294 162.632 29.646C163.396 30.5101 164.022 31.4615 164.471 32.5528C165.37 34.9127 165.37 37.4997 164.471 39.8146ZM252.828 35.1373C251.704 34.1471 250.413 33.3642 249.015 32.825C247.534 32.2342 246.004 31.7778 244.441 31.4615L238.474 30.2829C236.95 30.0107 235.874 29.6011 235.29 29.1016C235.047 28.9327 234.848 28.7091 234.708 28.4488C234.568 28.1884 234.491 27.8988 234.484 27.6033C234.484 26.9691 234.843 26.4247 235.605 25.9702C236.635 25.4258 237.758 25.151 238.923 25.2435C240.448 25.2435 241.973 25.5606 243.363 26.1499C244.711 26.7418 246.056 27.4236 247.266 28.2375C249.015 29.3289 250.495 29.1466 251.526 27.9204L254.398 24.6542C254.934 24.1072 255.249 23.3831 255.296 22.6115C255.272 22.2139 255.164 21.8261 254.978 21.4738C254.792 21.1216 254.533 20.813 254.218 20.5688C253.005 19.5249 251.079 18.3886 248.521 17.2999C245.966 16.2111 242.734 15.6192 238.923 15.6192C236.598 15.588 234.281 15.9252 232.061 16.6181C230.163 17.2036 228.385 18.1255 226.813 19.34C225.397 20.4488 224.247 21.8611 223.449 23.4729C222.689 25.0444 222.29 26.7665 222.284 28.5123C222.284 31.7363 223.269 34.3683 225.198 36.3185C227.127 38.2714 229.685 39.5424 232.87 40.1767L239.058 41.5402C240.406 41.7675 241.748 42.1744 243.006 42.7664C243.677 43.0386 244.127 43.7177 244.127 44.4893C244.127 45.1711 243.767 45.8053 243.006 46.3524C242.242 46.8967 240.987 47.2588 239.373 47.2588C237.68 47.2875 236.005 46.9144 234.484 46.17C233.043 45.4745 231.701 44.5893 230.494 43.538C229.965 43.0927 229.355 42.7536 228.697 42.5391C227.981 42.3119 227.127 42.5391 226.187 43.3108L222.778 45.8978C222.314 46.2323 221.954 46.6912 221.74 47.2214C221.526 47.7517 221.466 48.3317 221.568 48.8945C221.745 50.0308 222.688 51.1618 224.437 52.4805C228.737 55.3831 233.827 56.8891 239.013 56.7932C241.428 56.8245 243.833 56.4876 246.145 55.7943C248.129 55.1946 249.995 54.2578 251.66 53.0249C253.14 51.8886 254.398 50.4351 255.249 48.7571C256.069 47.1064 256.499 45.2889 256.504 43.4455C256.541 41.7886 256.204 40.1446 255.518 38.636C254.84 37.3176 253.929 36.1304 252.828 35.1373ZM286.914 44.5818C286.739 44.2718 286.493 44.0074 286.197 43.81C285.901 43.6125 285.563 43.4877 285.209 43.4455C284.493 43.4455 283.774 43.6728 283.19 44.0797C282.24 44.7043 281.142 45.0654 280.006 45.1262C279.647 45.1262 279.245 45.0813 278.886 44.9888C278.497 44.9107 278.139 44.7216 277.855 44.4444C277.497 44.1106 277.207 43.7103 277.002 43.2658C276.749 42.5996 276.626 41.8907 276.642 41.1782V27.014H286.779C287.371 26.9999 287.934 26.7553 288.349 26.3322C288.559 26.143 288.727 25.9121 288.843 25.6541C288.959 25.3961 289.02 25.1167 289.022 24.8339V18.8458C289.026 18.5554 288.968 18.2676 288.852 18.0015C288.736 17.7354 288.564 17.4971 288.349 17.3025C287.942 16.9013 287.395 16.6738 286.824 16.6683H276.687V6.99649C276.704 6.70892 276.656 6.42131 276.548 6.15442C276.439 5.88754 276.273 5.64803 276.061 5.45322C275.672 5.08455 275.159 4.8744 274.624 4.86393H266.73C266.165 4.85292 265.617 5.06453 265.206 5.45322C264.788 5.85927 264.546 6.41378 264.535 6.99649V16.6683H260.048C259.765 16.6605 259.485 16.7177 259.229 16.8355C258.972 16.9532 258.746 17.1284 258.568 17.3475C258.201 17.7614 257.995 18.2929 257.986 18.8458V24.8365C257.986 25.3809 258.208 25.9279 258.568 26.3349C258.739 26.5621 258.963 26.7434 259.222 26.8624C259.48 26.9814 259.764 27.0344 260.048 27.0166H264.535V43.8578C264.49 45.8569 264.888 47.8412 265.7 49.6688C266.423 51.1622 267.446 52.4908 268.704 53.5719C269.96 54.6157 271.439 55.3424 272.964 55.7969C274.548 56.2883 276.197 56.5334 277.855 56.5236C280.035 56.5193 282.2 56.166 284.269 55.4772C286.187 54.8374 287.925 53.7483 289.337 52.3008C289.766 51.8598 290.027 51.2828 290.076 50.6696C290.125 50.0563 289.958 49.4453 289.604 48.9421L286.914 44.5818ZM329.656 16.663H321.853C321.582 16.662 321.315 16.7179 321.068 16.8272C320.82 16.9365 320.599 17.0967 320.418 17.2972C320.216 17.5007 320.057 17.7421 319.949 18.0074C319.841 18.2727 319.787 18.5567 319.789 18.8432V19.7945C318.808 18.6525 317.602 17.7258 316.245 17.0726C314.11 16.0368 311.758 15.5233 309.385 15.5743C306.903 15.5744 304.445 16.0637 302.152 17.014C299.858 17.9644 297.775 19.3573 296.02 21.1131C294.167 22.9689 292.703 25.1752 291.712 27.6033C290.597 30.2917 290.047 33.1811 290.098 36.0912C290.051 39.0165 290.601 41.9207 291.712 44.6268C292.701 47.0315 294.181 49.2565 295.975 51.1169C297.704 52.901 299.774 54.3187 302.063 55.2857C304.351 56.2528 306.811 56.7492 309.296 56.7456C311.663 56.7898 314.009 56.2927 316.156 55.2922C317.503 54.6131 318.758 53.7066 319.744 52.5703V53.5692C319.749 54.1242 319.966 54.6527 320.352 55.0411C320.737 55.431 321.26 55.6524 321.808 55.6569H329.656C330.2 55.6576 330.722 55.4433 331.109 55.0606C331.495 54.678 331.715 54.1581 331.72 53.6142V18.8458C331.726 18.5699 331.677 18.2956 331.577 18.0385C331.477 17.7814 331.327 17.5466 331.136 17.3475C330.958 17.1278 330.732 16.952 330.476 16.8338C330.219 16.7155 329.938 16.6554 329.656 16.663ZM319.118 39.8146C318.707 40.9108 318.081 41.9142 317.279 42.7664C316.471 43.5846 315.53 44.2593 314.496 44.7615C313.404 45.275 312.206 45.524 311 45.4882C309.787 45.4882 308.622 45.2161 307.546 44.7615C306.489 44.2762 305.53 43.5998 304.719 42.7664C303.916 41.9142 303.291 40.9108 302.88 39.8146C302.029 37.4842 302.029 34.9282 302.88 32.5978C303.292 31.5153 303.917 30.5268 304.719 29.6909C305.527 28.8744 306.468 28.1952 307.546 27.6958C308.63 27.2036 309.809 26.9555 311 26.9691C312.21 26.9691 313.376 27.1963 314.496 27.6931C315.529 28.1952 316.47 28.8294 317.279 29.6486C318.085 30.5101 318.713 31.4615 319.118 32.5528C320.058 34.8821 320.058 37.4854 319.118 39.8146ZM372.491 44.0824L368.004 40.6312C367.153 39.952 366.344 39.7697 365.628 40.0419C364.997 40.3126 364.431 40.7154 363.969 41.2231C362.988 42.4114 361.839 43.451 360.56 44.3097C359.215 45.0813 357.732 45.446 356.208 45.3535C354.455 45.3732 352.74 44.8417 351.306 43.834C349.864 42.8206 348.772 41.3849 348.18 39.7248C347.773 38.5883 347.561 37.391 347.554 36.1837C347.554 34.9576 347.731 33.7314 348.18 32.5528C348.584 31.4615 349.168 30.4652 349.974 29.646C350.783 28.8294 351.723 28.1477 352.754 27.6931C353.851 27.1879 355.045 26.9256 356.253 26.9241C357.777 26.8693 359.286 27.2467 360.605 28.0129C361.895 28.8582 363.045 29.8995 364.014 31.0994C364.46 31.5989 364.999 32.0058 365.628 32.2806C366.344 32.5528 367.153 32.3705 367.959 31.6887L372.446 28.2851C372.982 27.9204 373.431 27.376 373.611 26.7418C373.738 26.4023 373.788 26.0388 373.757 25.6777C373.726 25.3166 373.615 24.9669 373.431 24.6542C371.701 21.9526 369.327 19.7219 366.524 18.1614C363.564 16.4833 360.021 15.6192 356.073 15.6192C353.29 15.62 350.533 16.1593 347.955 17.2074C345.492 18.2128 343.252 19.6945 341.362 21.5676C339.467 23.4234 337.971 25.6474 336.968 28.1027C334.859 33.2992 334.859 39.1132 336.968 44.3097C337.998 46.7593 339.478 48.9844 341.362 50.7998C345.288 54.6466 350.577 56.784 356.073 56.7456C360.021 56.7456 363.564 55.8841 366.524 54.2035C369.352 52.641 371.742 50.3941 373.476 47.6684C373.659 47.3638 373.771 47.0216 373.802 46.6677C373.833 46.3138 373.783 45.9575 373.656 45.6257C373.443 44.9996 373.035 44.4586 372.491 44.0824ZM414.02 52.1607L401.688 34.0485L412.229 20.1142C412.475 19.7963 412.643 19.4253 412.721 19.0308C412.798 18.6362 412.783 18.2291 412.675 17.8416C412.495 17.2999 412.004 16.708 410.704 16.708H402.361C401.881 16.7215 401.408 16.8293 400.969 17.0251C400.453 17.2844 400.03 17.697 399.759 18.2063L391.326 30.0107H389.308V2.09187C389.314 1.81616 389.266 1.54192 389.166 1.28483C389.066 1.02773 388.917 0.792815 388.726 0.593525C388.531 0.402043 388.3 0.251326 388.046 0.150154C387.792 0.0489819 387.52 -0.000622333 387.246 0.00423089H379.441C378.892 0.0147449 378.366 0.22417 377.961 0.593525C377.752 0.781592 377.588 1.01347 377.48 1.27252C377.371 1.53157 377.322 1.81138 377.334 2.09187V53.5692C377.334 54.1585 377.556 54.7055 377.961 55.0676C378.156 55.2593 378.387 55.4102 378.641 55.5114C378.895 55.6125 379.167 55.662 379.441 55.6569H387.246C387.795 55.6464 388.321 55.4369 388.726 55.0676C388.917 54.8683 389.066 54.6334 389.166 54.3763C389.266 54.1192 389.314 53.8449 389.308 53.5692V39.952H391.551L400.744 54.0687C401.283 55.0676 402.317 55.7018 403.437 55.7018H412.184C413.529 55.7018 414.065 55.0676 414.29 54.5232C414.448 54.1386 414.506 53.7204 414.459 53.3073C414.411 52.8943 414.261 52.4999 414.02 52.1607ZM219.369 16.663H210.622C210.299 16.6441 209.975 16.6952 209.673 16.8129C209.371 16.9305 209.098 17.112 208.873 17.3448C208.478 17.7473 208.199 18.2497 208.067 18.7982L201.606 42.8562H200.039L193.134 18.7982C193.003 18.2896 192.774 17.8113 192.461 17.3897C192.27 17.1587 192.03 16.9735 191.758 16.8477C191.487 16.7219 191.19 16.6588 190.891 16.663H181.83C180.667 16.663 179.948 17.0277 179.634 17.7993C179.409 18.4785 179.409 19.2528 179.634 19.9319L190.711 53.7516C190.891 54.251 191.16 54.7505 191.565 55.1125C192.014 55.5221 192.595 55.7467 193.222 55.7018H197.888L197.484 56.7932L196.453 59.9246C196.136 60.876 195.555 61.7401 194.749 62.3743C194.003 62.9472 193.086 63.2517 192.146 63.2384C191.34 63.2384 190.534 63.0561 189.815 62.7363C189.079 62.4168 188.385 62.0057 187.752 61.5128C187.176 61.1016 186.486 60.8799 185.778 60.8786H185.688C185.282 60.8988 184.888 61.0216 184.543 61.2356C184.198 61.4496 183.913 61.7478 183.714 62.1021L180.934 66.1875C179.814 67.9581 180.44 69.0944 181.159 69.7286C182.642 71.0985 184.4 72.1355 186.317 72.7702C188.439 73.495 190.667 73.8629 192.91 73.8589C196.9 73.8589 200.264 72.7702 202.819 70.5927C205.488 68.2497 207.433 65.1943 208.427 61.785L221.256 19.9319C221.525 19.2052 221.57 18.4336 221.301 17.7068C221.076 17.2074 220.579 16.663 219.369 16.663Z" fill="#011B33"/>
</svg>
