<svg width="8" height="8" viewBox="0 0 8 8" fill="none" xmlns="http://www.w3.org/2000/svg">
<path fill-rule="evenodd" clip-rule="evenodd" d="M5.70915 0.368624C5.64019 0.258443 5.5386 0.172502 5.41851 0.122764C5.29842 0.0730261 5.16582 0.0619662 5.03915 0.0911239L4.14015 0.297624C4.04802 0.3188 3.95228 0.3188 3.86015 0.297624L2.96115 0.0911239C2.83448 0.0619662 2.70187 0.0730261 2.58179 0.122764C2.4617 0.172502 2.3601 0.258443 2.29115 0.368624L1.80115 1.15062C1.75115 1.23062 1.68365 1.29812 1.60365 1.34862L0.821649 1.83862C0.711657 1.90752 0.625843 2.00895 0.576115 2.12883C0.526388 2.24871 0.515216 2.3811 0.544148 2.50762L0.750649 3.40762C0.771748 3.4996 0.771748 3.59515 0.750649 3.68712L0.544148 4.58662C0.515103 4.71322 0.52622 4.84572 0.575952 4.9657C0.625685 5.08569 0.711562 5.1872 0.821649 5.25612L1.60365 5.74612C1.68365 5.79612 1.75115 5.86362 1.80165 5.94362L2.29165 6.72562C2.43265 6.95112 2.70165 7.06262 2.96115 7.00312L3.86015 6.79662C3.95228 6.77545 4.04802 6.77545 4.14015 6.79662L5.03965 7.00312C5.16624 7.03217 5.29874 7.02105 5.41873 6.97132C5.53871 6.92159 5.64022 6.83571 5.70915 6.72562L6.19915 5.94362C6.24915 5.86362 6.31665 5.79612 6.39665 5.74612L7.17915 5.25612C7.28924 5.1871 7.37508 5.08547 7.42472 4.96539C7.47437 4.84531 7.48535 4.71274 7.45615 4.58612L7.25015 3.68712C7.22897 3.59499 7.22897 3.49926 7.25015 3.40712L7.45665 2.50762C7.48574 2.38108 7.4747 2.24862 7.42506 2.12864C7.37542 2.00866 7.28964 1.90712 7.17965 1.83812L6.39715 1.34812C6.31726 1.29803 6.24974 1.23051 6.19965 1.15062L5.70915 0.368624ZM5.45765 2.43212C5.48857 2.37526 5.49624 2.30861 5.47902 2.24621C5.46181 2.18381 5.42106 2.13052 5.36536 2.09755C5.30965 2.06458 5.24333 2.0545 5.18034 2.06943C5.11736 2.08437 5.06262 2.12315 5.02765 2.17762L3.72015 4.39062L2.93065 3.63462C2.90723 3.61057 2.8792 3.59149 2.84824 3.57851C2.81729 3.56552 2.78403 3.55891 2.75046 3.55905C2.71689 3.5592 2.68369 3.5661 2.65285 3.57936C2.62201 3.59261 2.59415 3.61194 2.57094 3.63619C2.54773 3.66044 2.52964 3.68912 2.51775 3.72052C2.50586 3.75191 2.50042 3.78538 2.50175 3.81892C2.50307 3.85247 2.51114 3.8854 2.52547 3.91576C2.5398 3.94612 2.5601 3.97328 2.58515 3.99562L3.60215 4.97012C3.62937 4.99615 3.66212 5.01569 3.69795 5.02729C3.73378 5.03888 3.77176 5.04223 3.80907 5.03709C3.84638 5.03195 3.88204 5.01844 3.9134 4.99758C3.94475 4.97672 3.97099 4.94905 3.99015 4.91662L5.45765 2.43212Z" fill="url(#paint0_linear_934_6489)"/>
<defs>
<linearGradient id="paint0_linear_934_6489" x1="2.26438" y1="7.01897" x2="5.73613" y2="0.0750155" gradientUnits="userSpaceOnUse">
<stop stop-color="#1C4A29"/>
<stop offset="1" stop-color="#419759"/>
</linearGradient>
</defs>
</svg>
